# xmcd
#
# Track frame offsets: 
#        150
#        22306
#        39669
#        65134
#        84768
#        106701
#        129449
#        150679
#        169693
#        191417
#        222907
#
# Disc length: 3183 seconds
#
# Revision: 0
# Processed by: cddbd v1.5.2PL0 Copyright (c) Steve Scherf et al.
# Submitted via: ExactAudioCopy v1.3
#
DISCID=8f0c6d0b
DTITLE=Dennis Herrera - You Stole My Heart
DYEAR=2018
DGENRE=West Coast Blues
TTITLE0=You Stole My Heart
TTITLE1=Takes Money
TTITLE2=Fore
TTITLE3=With No Refrain
TTITLE4=Look Out
TTITLE5=Recovery
TTITLE6=You Can Name It
TTITLE7=Backed-Up
TTITLE8=My Past Time
TTITLE9=Run With The Losers
TTITLE10=Bittersweet
EXTD=
EXTT0=
EXTT1=
EXTT2=
EXTT3=
EXTT4=
EXTT5=
EXTT6=
EXTT7=
EXTT8=
EXTT9=
EXTT10=
PLAYORDER=
